<?xml version="1.0" standalone="no"?>
<!DOCTYPE svg PUBLIC "-//W3C//DTD SVG 20010904//EN"
 "http://www.w3.org/TR/2001/REC-SVG-20010904/DTD/svg10.dtd">
<svg version="1.0" xmlns="http://www.w3.org/2000/svg"
 width="300.000000pt" height="300.000000pt" viewBox="0 0 300.000000 300.000000"
 preserveAspectRatio="xMidYMid meet">
<metadata>
Created by potrace 1.14, written by Peter Selinger 2001-2017
</metadata>
<g transform="translate(0.000000,300.000000) scale(0.100000,-0.100000)"
fill="#000000" stroke="none">
<path d="M0 1500 l0 -1500 1500 0 1500 0 0 1500 0 1500 -1500 0 -1500 0 0
-1500z m1359 272 c74 -202 137 -371 141 -375 7 -8 81 191 221 590 l54 153 248
0 247 0 0 -635 0 -635 -200 0 -200 0 -2 313 -3 312 -96 -310 -96 -310 -171 -3
-171 -2 -35 112 c-19 62 -62 200 -95 307 -33 106 -63 196 -66 199 -3 3 -5
-135 -5 -306 l0 -312 -200 0 -200 0 0 635 0 635 248 0 247 0 134 -368z"/>
</g>
</svg>
